<svg xmlns="http://www.w3.org/2000/svg" xmlns:xlink="http://www.w3.org/1999/xlink" xml:space="preserve" width="512" height="512"><defs><linearGradient id="b"><stop offset="0" style="stop-color:#faf4f4;stop-opacity:1"/><stop offset="1" style="stop-color:#faf4f4;stop-opacity:0"/></linearGradient><linearGradient id="a"><stop offset="0" style="stop-color:#e68591;stop-opacity:1"/><stop offset="1" style="stop-color:#f6b8c3;stop-opacity:1"/></linearGradient><linearGradient xlink:href="#a" id="c" x1="201.339" x2="201.91" y1="318.386" y2="336.917" gradientTransform="translate(.215 -15.813)" gradientUnits="userSpaceOnUse"/><radialGradient xlink:href="#b" id="d" cx="213.824" cy="319.692" r="8.597" fx="213.824" fy="319.692" gradientTransform="matrix(1.65423 -.00353 .00281 1.3202 -141.976 -101.676)" gradientUnits="userSpaceOnUse"/><radialGradient xlink:href="#b" id="f" cx="213.824" cy="319.692" r="8.597" fx="213.824" fy="319.692" gradientTransform="matrix(1.65423 -.00353 .00281 1.3202 -37.903 -101.226)" gradientUnits="userSpaceOnUse"/></defs><g style="display:inline"><circle cx="256" cy="256" r="245.729" style="display:inline;fill:#282828;fill-opacity:1;stroke:none;stroke-width:20.5418;stroke-linecap:butt;stroke-linejoin:bevel;stroke-miterlimit:2.7;stroke-dasharray:none;stroke-opacity:1;paint-order:normal"/><path d="M-152.027-349.702a245.73 245.73 0 0 1 245.73-245.73 245.73 245.73 0 0 1 245.729 245.73H93.702Z" style="display:inline;fill:#d3869b;fill-opacity:1;stroke:none;stroke-width:20.5418;stroke-linecap:butt;stroke-linejoin:bevel;stroke-miterlimit:2.7;stroke-dasharray:none;stroke-opacity:1;paint-order:normal" transform="rotate(120)"/><circle cx="256" cy="256" r="245.729" style="display:inline;fill:none;fill-opacity:1;stroke:#1d1f20;stroke-width:20.542;stroke-linecap:butt;stroke-linejoin:bevel;stroke-miterlimit:2.7;stroke-dasharray:none;stroke-opacity:1;paint-order:normal"/></g><g style="display:inline" transform="translate(4.752 15.063)"><path d="M317.052 78.092c259.43 429.397-155.531 284.44-221.718 210.134 1.271 22.27-2.558 42.972 12.625 62.494 4.166 5.356 10.026 7.45 18.648 10.079-3.967-7.428-6.987-11.668-3.003-10.555s24.934 16.048 27.986 17.405c8.99 3.999 17.866 11.354 27.867 14.035 18.9 5.068 37.733 5.631 57.135 5.631 31.674 0 66.008-.195 98.407-2.945-3.026 7.083-3.595 8.892-6.774 10.198l5.104.192c11.948.449 24.65-5.745 41.966-24.308 12.222 23.368 38.729 1.035 45.354-13.705 9.292-20.675 3.413-37.153 2.257-58.243-.495-9.037 2.332-18.341 2.332-27.409 0-24.476-11.874-60.607-36.238-70.806 2.025-9.954-5.568-24.696-8.756-34.26-10.443-31.33-27.494-78.347-63.192-87.937" style="display:inline;fill:#1d1f20;fill-opacity:1;stroke:none;stroke-opacity:1"/><path d="M349.41 285.339c.284 2.505-.828 10.024.842 9.884 4.043-.69 23.426-.633 25.468-1.453-.11-1.536.286-3.738-.118-5.22-8.642-.953-17.498-2.112-26.192-3.211" style="fill:#f1d9c4;fill-opacity:1;stroke:none;stroke-width:3.47378;stroke-linecap:round;stroke-miterlimit:2.7;-inkscape-stroke:none;paint-order:markers fill stroke"/><path d="M313.131 88.954c-13.357 19.45-12.666 48.175-15.356 70.736 2.808.06 8.994-4.318 11.752-6.41-3.667-6.371-8.664-18.372 3.617-17.585 6.676-.04 13.494 2.604 19.876 4.093.813-7.745-12.126-47.66-19.89-50.834zm-165.39-3.785c-5.608.842-5.357 53.078-4.186 56.109 1.218.927 18.715-3.58 29.89-4.441 1.352-.741-17.455-52.905-25.704-51.668" style="fill:#f5af9d;fill-opacity:1;stroke:none;stroke-width:6.94756;stroke-linecap:round;stroke-miterlimit:2.7;-inkscape-stroke:none;paint-order:markers fill stroke"/><path d="M151.33 197.104c-10.77 5.32-29.844 16.162-29.534 33.133 17.04-1.958 37.322 14.506 41.815 31.49 3.144 1.263 8.992-10.002 12.623-21.091-11.697-3.008-29.15-8.273-24.904-43.532M320.696 83.917c-.945 17.346 22.582 55.62 29.33 106.286-1.744 15.757-8.73 9.326-6.065 21.703 2.901 8.7-.093 19.832 1.05 27.758 28.803-14.005 34.906-10.251 63.488.244-.538-10.393-15.974-29.614-25.368-42.853-15.945-29.037-27.358-97.771-62.435-113.138M291.74 238.733c7.844 29.43 39.033 51.29 53.252 46.91-1.526-12.966-6.3-29.29-3.856-44.133z" style="fill:#fcebd4;fill-opacity:1;stroke:none;stroke-width:6.94756;stroke-linecap:round;stroke-miterlimit:2.7;-inkscape-stroke:none;paint-order:markers fill stroke"/><path d="M164.06 97.605c-1.706.872 24.178 61.39 26.672 66.603 1.728 1.063 24.443-6.477 26.066-7.13-2.645-22.568-41.76-58.983-52.739-59.473" style="fill:#f9d1c6;fill-opacity:1;stroke:none;stroke-width:9.82533;stroke-linecap:round;stroke-miterlimit:2.7;-inkscape-stroke:none;paint-order:markers fill stroke"/><path d="M207.983 164.166c24.314-5.144 48.189-2.392 72.824-1.78 1.635.44 13.37 3.753 34.737-6.7-2.432-8.23-5.634-12.71-3.091-14.056l21.45 3.357c9.173 4.88 15.978 35.1 14.24 45.18-.06 8.97-4.66 12.319-5.574 21.247.566 5.884.769 34.04-35.796 24.452-30.797-2.622-59.172-20.908-90.071-10.775-18.4 3.061-40.888 20.462-57.364 2.653-6.334-7.534-6.131-13.761-6.143-31.627-3.038-1.862-7.814-3.91-7.871-6.634-.133-17.668 2.166-17.491 5.453-20.56 5.485-6.674-6.638-19.348-1.256-24.39 6.764-5.178 16.95-3.4 24.86-2.73 8.113 1.613 9.404 17.618 13.043 23.687z" style="fill:#e8e1e5;fill-opacity:1;stroke:none;stroke-width:6.94756;stroke-linecap:round;stroke-miterlimit:2.7;-inkscape-stroke:none;paint-order:markers fill stroke"/><path d="M193.39 234.622c.22 17.457 3.22 38.26 13.051 53.13 7.345 11.12 18.337 19.196 25.91 30.102 2.774 3.92 4.993 9.737 6.338 14.393 4.363-2.615 6.977-8.604 8.76-10.864 4.11-2.106 10.143-3.983 11.338-9.083 1.575-5.062 1.247-10.25 3.248-15.179 17.567-20.13 24.094-34.308 21.072-62.768-11.447-3.686-43.668-19.513-89.717.269" style="display:inline;fill:#f8c8c0;fill-opacity:1;stroke:none;stroke-width:6.94756;stroke-linecap:round;stroke-miterlimit:2.7;-inkscape-stroke:none;paint-order:markers fill stroke"/><path d="M159.546 288.033c7.576-5.448 27.56-17.013 31.1-19.084-.002-.047-3.688-29.356-3.986-30.5-13.754 9.114-25.508 41.86-27.114 49.584m124.556-16.723c7.9-1.167 12.74-2.58 17.26-3.63-2.117-4.827-7.38-12.514-10.922-17.03z" style="fill:#f9d1c6;fill-opacity:1;stroke:none;stroke-width:6.94756;stroke-linecap:round;stroke-miterlimit:2.7;-inkscape-stroke:none;paint-order:markers fill stroke"/><ellipse cx="123.317" cy="258.581" rx="36" ry="27.625" style="display:inline;fill:#fbc4b4;fill-opacity:1;fill-rule:evenodd;stroke-width:.983453"/><ellipse cx="332.84" cy="306.716" rx="38.65" ry="26.289" style="display:inline;fill:#ed9f9f;fill-opacity:1;fill-rule:evenodd;stroke-width:1.03725" transform="matrix(.99098 -.13399 .15315 .9882 0 0)"/><path d="M129.548 247.857c-11.688 3.072-11.133 8.34-15.127 3.54-4.118-2.927-10.723-.49-11.563 4.598-.671 3.402.726 8.052 4.72 8.46 2.906.576 5.69.136 8.566.296 4.556 1.844 7.362 6.528 12.471 7.332 4.477.961 9.42-.662 12.018-4.539 3.03-3.895 2.887-9.55.833-13.846-2.427-4.717-7.076-5.87-11.918-5.841m239.268-.136c-5.344-.192-10.507 3.772-11.255 9.15-1.289 6.832 3.538 15.123 10.906 15.45 3.786.442 7.553-1.051 10.074-3.893 1.872-1.654 3.731-3.739 6.386-3.979 3.472 1.295 7.968 1.413 10.694-1.67 3.038-2.875 2.803-8.21-.59-10.717-9.49-5.182-10.192 3.666-16.913-1.074-2.827-1.768-5.836-3.518-9.302-3.267" style="fill:#faf4f4;fill-opacity:1;stroke:none;stroke-width:6.94756;stroke-linecap:round;stroke-miterlimit:2.7;-inkscape-stroke:none;paint-order:markers fill stroke"/><path d="M411.438 278.228c-14.332 7.638-17.098 5.015-26.895 5.142-2.653.493-3.84 3.219-4.134 5.63-.78 19.065-2.406 46.41-5.996 65.476-.531 3.733.197 7.99 3.32 10.448 3.996 3.714 9.864 3.874 14.952 3.039 9.842-2.187 18.035-15.8 20.814-30.955 2.785-19.357-1.866-58.663-2.061-58.78" style="fill:#eab8a5;fill-opacity:1;stroke:none;stroke-width:4.91266;stroke-linecap:round;stroke-miterlimit:2.7;-inkscape-stroke:none;paint-order:markers fill stroke"/><path d="M375.819 299.837c-5.978 1.217-12.06 2.266-18.07 3.457-.96.528-.492 1.878-.494 2.806.23 1.203 1.75.745 2.601 1.057 3.969.686 8.228 1.262 11.535 3.749 1.252 1.423 2.002 3.504 1.18 5.32-1.77 3.522-5.203 3.321-7.027 4.51-1.1 1.761 6.295 6.865 6.297 13.527-.191 11.288-13.017 12.518-18.674.992 1.701-.45 7.198-.64 4.03-2.994-2.22-1.085-10.131-9.56-9.22-3.707-.326 20.221-12.511 37.789-18.353 55.874.094 1.112 2.81 1.124 3.476.793 28.614-10.102 37.887-34.09 41.336-53.483 1.773-10.075 2.397-20.33 2.364-30.55.02-.609-.21-1.425-.981-1.351" style="fill:#ed9f9f;fill-opacity:1;stroke:none;stroke-width:3.47378;stroke-linecap:round;stroke-miterlimit:2.7;-inkscape-stroke:none;paint-order:markers fill stroke"/><path d="M154 281.838c-11.019 5.876-17.563 7.503-31.04 4.856-8.81-1.578-17.62-3.86-26.637-3.81-1.3.549-.775 2.481-1.214 3.643-2.11 13.974-1.793 28.588 2.748 42.07 2.649 7.417 7.053 14.596 13.773 18.944 1.254.476 1.311-1.195.968-1.968-3.05-15.339 22.75 6.341 27.793 9.194 1.518.519 1.143-1.522 1.027-2.375-.127-9.352-1.578-12.85 4.648-38.392 4.419-15.091 6.58-17.995 9.01-31.263.06-.583-.47-1.147-1.076-.899" style="fill:#e89c9a;fill-opacity:1;stroke:none;stroke-width:4.91266;stroke-linecap:round;stroke-miterlimit:2.7;-inkscape-stroke:none;paint-order:markers fill stroke"/><path d="M220.535 321.012a22.463 27.191 0 0 1-22.463 27.19 22.463 27.191 0 0 1-22.463-27.19 22.463 27.191 0 0 1 22.463-27.191 22.463 27.191 0 0 1 22.463 27.19m99.751-8.068a27.191 22.463 74.029 0 1-14.114 32.323 27.191 22.463 74.029 0 1-29.078-19.961 27.191 22.463 74.029 0 1 14.114-32.322 27.191 22.463 74.029 0 1 29.078 19.96" style="fill:url(#c);fill-rule:evenodd"/><path d="M227.108 319.63a14.472 11.35 0 0 1-14.44 11.348 14.472 11.35 0 0 1-14.504-11.299 14.472 11.35 0 0 1 14.376-11.399 14.472 11.35 0 0 1 14.568 11.249" style="fill:url(#d);fill-opacity:1;fill-rule:evenodd"/><path d="M321.233 330.998c-17.252 12.643-34.641 11.588-35.83 10.81-7.425-6.221-6.97-22.152-6.723-23.441 3.785-37.65 22.047-36.142 30.786-28.404 12.412 10.86 12.986 25.803 11.767 41.035m18.391-16.892c-22.633-10.128-3.83-14.575 4.014-17.593-2.931-9.068-13.34-3.178-18.032-1.17-8.663-12.57-20.36-23.898-39.779-14.227-11.787 5.87-19.721 13.42-21.837 27.187-.79 12.951-11.51 13.987-22.401 26.911-9.68 5.642-5.696-13.043-20.74-22.736-5.277 4.07-3.128 8.883-3.75 15.694-8.742 16.034-36.956 12.077-40.131-.1-1.45-7.498-1.58-15.004 1.752-22.092 8.858-15.194 20.922-16.94 21.686-17.669 1.1-1.112-.899-2.449-1.694-3.366-7.916-8.517-26.846 2.536-28.722 14.147-2.395 12.98-8.904 6.152-16.98 5.372-1.824.908 1.487 12.76 2.044 19.71-9.658 10.83-13.649 21.793 1.732 41.718 18.47 18.328 122.242 12.86 170.622 8.113 9.976-5.888 13.23-31.82 13.692-32.705-20.588-9.125-12.274-20.415-1.476-27.194" style="fill:#f9e3db;fill-opacity:1;stroke:none;stroke-width:3.47378;stroke-linecap:round;stroke-miterlimit:2.7;-inkscape-stroke:none;paint-order:markers fill stroke"/><path d="M331.182 320.079a14.472 11.35 0 0 1-14.44 11.35 14.472 11.35 0 0 1-14.504-11.3 14.472 11.35 0 0 1 14.375-11.4 14.472 11.35 0 0 1 14.568 11.25" style="fill:url(#f);fill-opacity:1;fill-rule:evenodd"/><path d="M331.227 326.56c-1.158 6.753 7.316 13.564 12.307 8.205-17.785-16.582 27.443-16.702 14.864 4.924 11.242-.171 9.541-7.535 9.541-7.535-2.111-12.642-34.603-19.66-36.712-5.594m-1.79-19.751c5.375 4.867 35.784 8.642 39.06 9.39 2.76.795 2.017-3.735 1.165-4.063-9.796-1.98-21.695-.237-29.35-7.625 4.072-.793 31.307-3.859 29.534-10.129-3.418-1.918-44.977 8.291-40.41 12.427" style="fill:#eb919a;fill-opacity:1;stroke:none;stroke-width:1.25;stroke-linecap:round;stroke-miterlimit:2.7;-inkscape-stroke:none;paint-order:markers fill stroke"/><path d="M311.052 72.092c-13.154 24.115-18.564 62.963-19.415 90.22-15.602-6.277-31.461-6.223-47.965-7.84-5.413-.531-13.39 2.56-18.199-.027-6.956-3.742-11.683-16.735-16.533-22.968-11.685-15.017-26.175-29.38-41.784-40.304-4.803-3.36-16.535-13.704-22.661-12.33-6.32 1.418-5.792 23.4-5.885 28.652-.462 26.041 2.366 52.512-2.892 77.658-.698 3.336.89 7.173-.391 10.278-3.078 7.457-11.917 14.059-16.76 20.557-3.504 4.7-6.27 11.888-10.971 15.444-9.963 7.534-20.98 8.513-24.406 23.385-2.56 11.111 5.583 17.586 6.144 27.408 1.271 22.271-2.558 42.973 12.625 62.495 4.166 5.356 10.026 7.45 18.648 10.079-3.967-7.428-6.987-11.668-3.003-10.555s24.934 16.048 27.986 17.405c8.99 3.999 17.866 11.354 27.867 14.035 18.9 5.068 37.733 5.631 57.135 5.631 31.674 0 66.008-.195 98.407-2.945-3.026 7.083-3.595 8.892-6.774 10.198l5.104.192c11.948.449 24.65-5.745 41.966-24.308 12.222 23.368 38.729 1.035 45.354-13.705 9.292-20.675 3.413-37.153 2.257-58.243-.495-9.037 2.332-18.341 2.332-27.409 0-24.476-11.874-60.607-36.238-70.806 2.025-9.954-5.568-24.696-8.756-34.26-10.443-31.33-27.494-78.347-63.192-87.937m10.278 12.562c35.374 26.327 39.157 69.446 57.255 106.209 8.562 17.394 23.341 28.772 29.54 47.965-10.215-4.608-27.272-11.735-38.83-9.955-8.64 1.33-15.897 7.19-23.982 9.955l2.13-17.13-2.13-18.273c12.434-4.636 6.123-20.872 3.833-30.835-4.952-21.534-12.822-42.039-20.187-62.811-2.25-6.347-9.267-18.815-7.63-25.125m-148.463 51.392c-11.022-.74-18.274.398-28.551 4.568 0-16.856-1.797-38.777 3.426-54.818 6.484 2.834 7.515 8.81 10.11 14.847 4.972 11.57 11.744 23.229 15.015 35.403m140.47-46.824c9.28 11.46 15.69 35.88 19.414 50.25-6.001-1.922-26.727-9.85-28.603 1.168-.677 3.973 3.172 8.965 4.62 12.536l-10.278 5.71c3.916-20.69 2.982-51.795 14.847-69.664m-148.464 9.136c18.823 11.43 45.43 36.278 51.391 58.244l-25.125 6.852-18.6-45.681zm19.414 67.38c-16.202 3.617-24.653 14.052-37.687 22.841 0-4.002-.71-8.812.947-12.557 1.829-4.137 6.744-6.565 6.794-11.431.055-5.439-7.186-12.761-4.373-17.897 2.922-5.335 22.703-6.044 26.769-2.11 4.364 4.222 6.272 15.357 7.55 21.154m161.027 30.835L325.898 200c-5.918-13.221-13.519 1.31-21.133-4.462-6.378-4.836 4.447-16.052-9.702-17.236l10.284-15.09 11.367-6.704-3.378-13.61c6.282.022 17.4.525 22.142 5.267 2.822 2.821 3.4 8.173 4.463 11.864 2.936 10.2 8.615 26.198 5.372 36.545m-49.108-10.278 1.142 12.562c-8.387 4.58-24.459 5.578-28.55 14.847l50.249-12.563c4.232 9.867 10.618 4.066 18.272 2.284 8.944 16.397 1.966 34.559-18.272 33.637-32.219-1.466-60.554-19.596-93.647-16.353-18.678 1.83-40.596 19.843-59.385 11.558-12.988-5.727-13.128-22.427-7.71-33.41 9.462-19.173 28.662-28.765 48.823-33.113 17.112-3.69 31.882-3.551 49.107-3.432 8.086.056 26.429-.857 32.553 5.425 6.55 6.719-11.403 18.481 7.418 18.558m-125.623 1.142c4.125 8.994 21.347 14.115 29.693 19.192 2.262 1.377 9.086 6.948 11.452 3.104 2.34-3.804-5.677-7.845-8.026-9.247-8.48-5.06-23.054-16.197-33.12-13.05m-19.414 10.28c-6.326 19.756.082 41.775 23.983 43.396l-10.278 19.415h-1.142c-.235-18.16-23.487-35.272-41.114-30.835-1.382-11.193 19.345-27.617 28.551-31.977m131.334 37.687c0 15.437-1.417 30.67-8.983 44.54-3.439 6.302-9.686 10.898-12.843 17.13-2.45 4.837-1.179 10.984-3.22 15.988-2.422 5.942-6.98 4.83-10.801 8.54-3.13 3.038-3.804 6.979-7.55 9.733-3.998-17.91-21.014-28.01-31.131-42.255-11.13-15.669-13.409-35-13.409-53.676 9.323-2.055 17.817-6.882 27.41-7.84 21.035-2.103 40.291 3.392 60.527 7.84m-157.6-.772c32.991-7.217 43.642 42.856 11.42 49.134-8.998 1.753-15.03-3.409-22.84-6.392-5.13-1.96-10.819-.018-15.99-2.178-12.848-5.37-12.004-21.47-2.934-30.11 6.622-6.31 12.227-4.5 20.065-5.933 3.721-.68 6.533-3.701 10.278-4.52m242.111-.07c7.325-1.062 10.706 2.054 17.13 4.267 3.638 1.254 7.635-.437 11.42.645 10.83 3.096 22 17.776 15.128 29.043-6 9.836-14.263 5.775-23.121 8.523-6.563 2.035-11.078 6.155-18.273 6.979-18.83 2.158-31.749-21.047-23.56-37.19 3.79-7.47 13.444-11.13 21.276-12.266m-180.44 4.266 3.531 30.121-11.526 5.023-18.273 12.822c4.892-14.746 13.786-38.281 26.267-47.966m153.032 3.426-3.267 18.273 7.836 23.983c-19.745 4.862-46.906-28.008-51.392-44.54l23.983 3.421zm-224.98 5.71c-6.736-11.62-21.384 2.513-19.166 12.563 2.238 10.14 11.728 8.614 19.166 9.538 7.519.934 11.923 8.692 20.557 7.027 12.79-2.467 16.78-20.025 7.899-28.969-9.03-9.093-19.008-5.856-28.456-.158m251.247-5.06c-13.829 4.156-19.203 26.111-4.568 33.045 9.07 4.296 14.874-2.486 22.84-5.277 3.678-1.288 7.591.22 11.42-1.084 10.76-3.664 12.5-16.337 3.353-23.258-6.082-4.602-8.754-.027-14.772-.301-6.697-.305-10.63-5.422-18.273-3.125m-248.963 11.912c4.723-3.111 8.729-7.194 14.847-6.673 14.39 1.227 14.254 22.96 0 23.708-7.164.376-9.008-5.317-14.868-7.286-5.118-1.719-12.97 2.481-13.562-6.328-.56-8.374 10.157-10.19 13.583-3.421m250.105-6.53c6.397-1.18 8.514 3.004 13.858 4.378 4.425 1.137 7.514-3.755 12.382-1.2 5.82 3.054 5.05 10.743-1.136 12.89-3.139 1.09-6.338-1.154-9.343.196-3.867 1.736-5.682 5.909-10.05 7.005-15.168 3.807-21.263-20.4-5.71-23.269m-76.517 3.104 10.278 15.988-15.988 3.426zm52.533 44.539c-16.59 3.388-21.407 10.572-4.568 18.272-3.476 2.833-7.858 3.914-10.352 8.016-4.857 7.989 4.24 17.192 11.494 19.393-.928 7.602-3.42 24.911-10.458 29.148-12.111 7.293-28.66 2.023-42.075 2.898-31.825 2.075-66.744 6.7-98.215.386-13.745-2.758-26.82-5.299-36.37-16.443-4.709-5.495-7.35-16.892-3.352-23.618 1.868-3.144 5.7-4.34 6.202-8.365.833-6.683-2.703-13.441-1.883-20.55 3.77.565 10.913 4.419 14.302 1.585 2.858-2.389 2.384-8.597 4.198-11.864 5.099-9.181 21.457-18.623 28.324-6.852-6.827 1.982-10.66 2.373-15.92 7.994-10.156 10.853-13.44 30.998-3.109 43.323 3.054 3.644 6.82 4.23 11.034 5.726 3.41 1.21 6.512 4.243 10.279 4.124 9.443-.299 15.027-16.04 15.995-20.56.735-3.431.14-12.807.918-13.846.515-.689.68-1.954 2.905-.429 1.923 1.319 4.624 5.567 5.947 8.385 6.816 14.51 8.304 14.783 9.643 14.718 5.633-.273 8.312-6.592 12.039-9.766 4.236-3.608 8.607-5.028 11.864-9.976 3.871-5.88 2.799-12.38 5.652-18.273 6.477-13.378 22.958-22.825 37.82-20.24 10.628 1.85 11.342 13.145 19.588 16.85 6.45 2.9 12.972-9.72 18.098-.036M211.53 333.75c-.875 2.693-3.485.634-9.195-.534-1.997-.408-10.472 4.208-13.407 3.107-13.289-4.985-5.618-37.868 6.778-40.833 13.355-3.194 17.848 9.56 18.282 22.748-.884 9.106-.209 8.591-2.458 15.512m200.02-54.95c-.338 9.772-14.55 36.248-28.006 26.188-3.354-2.508-4.135-18.083-.296-20.382 3.149-1.886 7.702.031 11.172-.254 6.259-.514 11.442-3.244 17.13-5.552m-256.957 3.427c-5.45 24.72-16.793 45.929-13.704 71.948-8.252-3.354-35.088-28.17-28.55-6.853-19.053-12.891-19.828-43.6-15.99-63.953 22.131.69 38.119 11.788 58.244-1.142m146.18 52.945c-5.855 1.17-10.346 5.828-14.423-1.628-6.717-12.283 4.976-30.224 9.855-41.04 5.792 1.667 10.512 3.723 13.784 9.137 4.495 7.437 8.589 7.598 8.234 20.502-.972 15.222-8.698 11.28-17.45 13.03m-10.257-47.833c-11.31 7.616-13.882 30.507-12.425 42.853 1.125 9.525 17.176 23.49 27.25 21.286 10.694-2.339 18.425-14.335 18.987-30.135.369-16.271-16.181-45.874-33.812-34.004m59.365-1.686 11.42 4.568v1.142l-11.42 3.426zm25.124 3.426v4.568h-1.142l-2.284-4.568zm-5.71 5.71c-3.97 7.326-23.05 6.929-30.835 9.136 5.494 7.217 22.068 8.066 30.835 9.136v2.284l-39.97-9.136c8.772-7.105 28.78-11.07 39.97-11.42m6.852 5.71c0 35.18-8.528 75.222-45.688 83.803 6.743-19.72 18.014-35.797 18.28-57.536l9.136 6.852s-3.315.37-4.494 1.407c-.338.296-.74.81-.565 1.222 3.023 7.11 17.123 13.295 19.636-.345 1.046-5.682-3.795-10.49-6.583-14.846 5.493-.247 11.086-6.038 5.462-10.881-3.152-2.715-9.454-3.442-13.456-3.966v-2.284zm30.835 4.568c-1.698 12.904-15.078 31.028-27.408 35.403L383 311.92c9.033 2.169 16.24-2.82 23.982-6.853m6.852 4.568c.064 18.777 1.334 38.119-13.106 53.179-8.767 9.142-29.505 5.756-25.331-9.76 1.584-5.89 10.157-8.89 14.455-12.737 9.267-8.295 17.744-18.787 21.698-30.682zm-54.817 29.693c.933-2.785 3.113-6.12 2.03-9.115-5.186-14.353-33.201-7.837-18.018 4.547-6.615 5.51-14.833-6.28-9.734-12.171 6.515-7.527 25.611-1.57 31.252 4.335 6.352 6.65 2.562 12.272-5.53 12.404m-158.5-.57c4.008-1.556 7.773 4.009 3.073 5.71-4.012 1.45-7.428-4.02-3.072-5.71m107.108 7.422-10.279-2.284c3.964-4.501 8.81-3.712 10.279 2.284" style="display:inline;fill:#500;stroke:none;stroke-opacity:1"/></g></svg>