<svg xmlns="http://www.w3.org/2000/svg" width="1024" height="1024" style="isolation:isolate" viewBox="0 0 1024 1024"><path fill="#eb7396" d="M336 886a426 426 0 1 0-206-215c7 13 9 36 5 50l-27 101c-16 64 21 101 85 84l94-26c15-4 36-1 49 6" style="isolation:isolate"/><g style="isolation:isolate"><path fill="#1d2021" d="m495 109-12 1c-72 7-117 63-128 117l-18 86-36-76c-23-51-77-91-142-82-32 4-60 22-76 48a96 96 0 0 0-7 79v2l157 336c25 53 81 87 143 78 62-8 110-52 124-110l92-364c7-29 1-63-21-86a99 99 0 0 0-76-29" overflow="visible"/><path fill="#ededed" d="m118 274 154 328c16 34 58 59 99 54s79-42 88-78l91-364c9-37-15-68-62-61-52 4-84 46-91 82l-38 184c-3 17-12 18-19 2l-77-166c-16-35-56-64-98-58s-63 43-47 77"/><path fill="#ededed" d="M702 397a266 266 0 0 0-101 17 272 272 0 0 0-81 49 275 275 0 0 0-60 75 277 277 0 0 0-32 93q-3 20-3 41a275 275 0 0 0 64 177 270 270 0 0 0 73 61 267 267 0 0 0 93 32 266 266 0 0 0 115-8 270 270 0 0 0 68-31 102 102 0 0 0-32-185 101 101 0 0 0-77 14l-16 7-18 3h-1a64 64 0 0 1-31-8 67 67 0 0 1-18-15 72 72 0 0 1-17-47 77 77 0 0 1 9-37 73 73 0 0 1 16-19 69 69 0 0 1 21-12 64 64 0 0 1 59 7 69 69 0 0 1 20 21c28 47 91 63 139 35v-1c47-28 63-91 34-138v-1a272 272 0 0 0-79-84 267 267 0 0 0-111-43z" overflow="visible"/><path fill="#1d2021" d="M752 767a60 60 0 0 1 45-8 60 60 0 0 1 19 109 229 229 0 0 1-58 26 225 225 0 0 1-97 7 225 225 0 0 1-78-27 228 228 0 0 1-62-52 234 234 0 0 1-54-150l2-35a235 235 0 0 1 27-79 233 233 0 0 1 51-63 230 230 0 0 1 69-42 225 225 0 0 1 114-12q51 7 94 37a230 230 0 0 1 67 71 60 60 0 0 1-103 61 110 110 0 0 0-32-34 106 106 0 0 0-97-11 111 111 0 0 0-33 20 114 114 0 0 0-25 30 118 118 0 0 0-15 57 114 114 0 0 0 27 73 109 109 0 0 0 29 25 106 106 0 0 0 53 14q15 0 29-5a109 109 0 0 0 28-12"/></g></svg>